<svg width="248" height="108" viewBox="0 0 248 108" fill="none" xmlns="http://www.w3.org/2000/svg">
  <title>ILG International Legal Group logo</title>
  <rect width="248" height="108" fill="none" />
  <g transform="translate(8 8)">
    <path
      d="M40.88 15.48C52.02 6.92 66.98 5.44 78.12 10.4c10.94 4.86 17.78 13.97 16.5 24.66-1.34 11-9.92 19.82-21.84 22.43-12.52 2.73-25.46-2.15-31.53-11.47 10.91 6.02 23.57 4.6 31.8-1.64 10.93-8.08 9.4-21.29-1.35-26.55-9.48-4.63-22.7-2.82-31.82 5.65z"
      fill="#254072"
    />
    <path
      d="M24.3 26.05C32.52 14.23 49.22 10.48 62.5 14.93c13.05 4.37 21.14 15.46 18.61 27.77-2.33 11.38-14.01 19.97-27.47 20.43-14.6.51-28.68-8.97-31.87-21.26 10.45 9.79 25.74 11.34 35.92 4.03 11.94-8.37 8.86-22.72-4.38-27.1-10.71-3.59-23.31.66-29.98 7.25z"
      fill="#4bb356"
    />
  </g>
  <text x="110" y="40" font-family="'Playfair Display', 'Times New Roman', serif" font-size="34" fill="#1a2850" letter-spacing="5">
    ILG
  </text>
  <text x="110" y="58" font-family="'Inter', 'Helvetica Neue', Arial, sans-serif" font-size="13" fill="#1a2850" letter-spacing="2.6">
    INTERNATIONAL LEGAL GROUP
  </text>
  <text x="110" y="76" font-family="'Inter', 'Helvetica Neue', Arial, sans-serif" font-size="11" fill="#1a2850" letter-spacing="1.1" font-weight="600">
    المجموعة القانونية الدولية للدراسات
  </text>
  <text x="110" y="92" font-family="'Inter', 'Helvetica Neue', Arial, sans-serif" font-size="11" fill="#1a2850" letter-spacing="1.1" font-weight="600">
    والاستشارات القانونية وأعمال المحاماة
  </text>
</svg>
